<?xml version="1.0" standalone="no"?>
<!DOCTYPE svg PUBLIC "-//W3C//DTD SVG 20010904//EN"
 "http://www.w3.org/TR/2001/REC-SVG-20010904/DTD/svg10.dtd">
<svg version="1.0" xmlns="http://www.w3.org/2000/svg"
 width="512.000000pt" height="512.000000pt" viewBox="0 0 512.000000 512.000000"
 preserveAspectRatio="xMidYMid meet">
<metadata>
Created by potrace 1.14, written by Peter Selinger 2001-2017
</metadata>
<g transform="translate(0.000000,512.000000) scale(0.100000,-0.100000)"
fill="#000000" stroke="none">
<path d="M2380 5110 c-1102 -77 -2029 -855 -2300 -1929 -52 -208 -72 -380 -72
-621 0 -241 20 -413 72 -621 231 -917 942 -1628 1859 -1859 208 -52 380 -72
621 -72 241 0 413 20 621 72 917 231 1628 942 1859 1859 52 208 72 380 72 621
0 241 -20 413 -72 621 -303 1203 -1424 2015 -2660 1929z m364 -358 c46 -16
107 -43 135 -61 99 -64 211 -206 241 -307 l12 -40 93 4 c75 4 108 0 163 -17
189 -57 322 -217 348 -418 l7 -53 -622 0 -621 0 0 -390 0 -390 -165 0 -165 0
0 390 0 390 -396 0 -397 0 7 53 c26 201 159 361 348 418 55 17 88 21 163 17
l93 -4 12 40 c30 101 142 243 241 307 143 91 340 115 503 61z m1042 -2719
l501 -868 -28 -36 c-52 -66 -222 -231 -315 -305 -300 -239 -646 -392 -1039
-460 -121 -21 -423 -29 -558 -15 -435 44 -846 213 -1185 486 -87 70 -253 233
-301 294 l-28 36 498 860 c273 473 511 876 528 895 l30 35 1 -565 c0 -528 2
-568 19 -605 78 -168 324 -168 402 0 16 34 19 66 19 217 0 212 9 261 57 317
95 111 247 114 342 5 18 -20 38 -48 44 -63 8 -18 13 -166 17 -472 l5 -446 28
-41 c15 -23 46 -54 70 -69 36 -24 52 -28 118 -28 66 0 81 4 117 28 23 15 54
46 69 69 l28 42 3 810 3 811 27 -32 c14 -18 252 -423 528 -900z"/>
</g>
</svg>
